<?xml version="1.0" encoding="utf-8"?>
<!-- Generator: Adobe Illustrator 23.0.6, SVG Export Plug-In . SVG Version: 6.00 Build 0)  -->
<svg version="1.1" id="Layer_1" xmlns="http://www.w3.org/2000/svg" xmlns:xlink="http://www.w3.org/1999/xlink" x="0px" y="0px"
	 viewBox="0 0 433 433" style="enable-background:new 0 0 433 433;" xml:space="preserve">
<style type="text/css">
	.st0{fill:#E34172;stroke:#FFFFFF;stroke-width:5;stroke-miterlimit:10;}
	.st1{fill:#FFFFFF;}
</style>
<path class="st0" d="M334,51.9c31.4,32.4,47.1,75.1,47.1,117.9c0.1,45.1-17.4,88.4-48.8,120.7L215.5,429.7L100.4,292.3
	c-63.3-65.4-62.8-172.7,1.7-238.7C134.6,20,177.2,3.3,219.6,3.3C262.8,3.3,304.1,20.8,334,51.9z"/>
<path class="st1" d="M217.2,82c43.4,0,78.7,35.2,78.7,78.7c0,43.4-35.2,78.7-78.7,78.7s-78.7-35.2-78.7-78.7
	C138.6,117.2,173.8,82,217.2,82z"/>
</svg>
